<svg width="256" height="256" viewBox="0 0 256 256" fill="none" xmlns="http://www.w3.org/2000/svg">
<rect width="256" height="256" fill="black"/>
<path fill-rule="evenodd" clip-rule="evenodd" d="M232.088 132C230.205 141.064 222.052 148 212.105 148C202.158 148 194.005 141.064 192.122 132H184C185.968 145.569 197.801 156 212.105 156C226.409 156 238.242 145.569 240.21 132H232.088ZM192.122 124C194.005 114.936 202.158 108 212.105 108C222.052 108 230.205 114.936 232.088 124H240.21C238.242 110.431 226.409 100 212.105 100C197.801 100 185.968 110.431 184 124H192.122Z" fill="#EDF0F1"/>
<rect x="146.105" y="124" width="20" height="8" fill="#EDF0F1"/>
<path fill-rule="evenodd" clip-rule="evenodd" d="M90.105 100H128.105V156H90.105V148H128.105V132H99.105V140H90.105V124H128.105V108H99.105V116H90.105V100Z" fill="#EDF0F1"/>
<path fill-rule="evenodd" clip-rule="evenodd" d="M64.0878 132C62.2052 141.064 54.0522 148 44.105 148C34.1579 148 26.0049 141.064 24.1223 132H16C17.9681 145.569 29.8014 156 44.105 156C58.4087 156 70.2419 145.569 72.2101 132H64.0878ZM24.1223 124C26.0049 114.936 34.1579 108 44.105 108C54.0522 108 62.2052 114.936 64.0878 124H72.2101C70.2419 110.431 58.4087 100 44.105 100C29.8014 100 17.9681 110.431 16 124H24.1223Z" fill="#EDF0F1"/>
</svg>
