<svg width="256" height="256" viewBox="0 0 256 256" fill="none" xmlns="http://www.w3.org/2000/svg">
<path fill-rule="evenodd" clip-rule="evenodd" d="M232.298 132C230.415 141.064 222.262 148 212.315 148C202.368 148 194.215 141.064 192.332 132H184.21C186.178 145.569 198.011 156 212.315 156C226.619 156 238.452 145.569 240.42 132H232.298ZM192.332 124C194.215 114.936 202.368 108 212.315 108C222.262 108 230.415 114.936 232.298 124H240.42C238.452 110.431 226.619 100 212.315 100C198.011 100 186.178 110.431 184.21 124H192.332Z" fill="#EDF0F1"/>
<rect x="146.21" y="124" width="20" height="8" fill="#EDF0F1"/>
<path fill-rule="evenodd" clip-rule="evenodd" d="M90.2101 100H128.21V156H90.2101V148H128.21V132H99.2101V140H90.2101V124H128.21V108H99.2101V116H90.2101V100Z" fill="#EDF0F1"/>
<path fill-rule="evenodd" clip-rule="evenodd" d="M64.0878 132C62.2052 141.064 54.0522 148 44.105 148C34.1579 148 26.0049 141.064 24.1223 132H16C17.9681 145.569 29.8014 156 44.105 156C58.4087 156 70.2419 145.569 72.2101 132H64.0878ZM24.1223 124C26.0049 114.936 34.1579 108 44.105 108C54.0522 108 62.2052 114.936 64.0878 124H72.2101C70.2419 110.431 58.4087 100 44.105 100C29.8014 100 17.9681 110.431 16 124H24.1223Z" fill="#EDF0F1"/>
</svg>
