<svg width="256" height="256" viewBox="0 0 256 256" fill="none" xmlns="http://www.w3.org/2000/svg">
<rect width="256" height="256" fill="#006266"/>
<path fill-rule="evenodd" clip-rule="evenodd" d="M231.983 132C230.1 141.064 221.947 148 212 148C202.053 148 193.9 141.064 192.017 132H183.895C185.863 145.569 197.696 156 212 156C226.304 156 238.137 145.569 240.105 132H231.983ZM192.017 124C193.9 114.936 202.053 108 212 108C221.947 108 230.1 114.936 231.983 124H240.105C238.137 110.431 226.304 100 212 100C197.696 100 185.863 110.431 183.895 124H192.017Z" fill="#EDF0F1"/>
<rect x="146" y="124" width="20" height="8" fill="#EDF0F1"/>
<path fill-rule="evenodd" clip-rule="evenodd" d="M90 100H128V156H90V148H128V132H99V140H90V124H128V108H99V116H90V100Z" fill="#EDF0F1"/>
<path fill-rule="evenodd" clip-rule="evenodd" d="M63.9827 132C62.1002 141.064 53.9471 148 44 148C34.0529 148 25.8998 141.064 24.0173 132H15.895C17.8631 145.569 29.6963 156 44 156C58.3037 156 70.1369 145.569 72.105 132H63.9827ZM24.0173 124C25.8998 114.936 34.0529 108 44 108C53.9471 108 62.1002 114.936 63.9827 124H72.105C70.1369 110.431 58.3037 100 44 100C29.6963 100 17.8631 110.431 15.895 124H24.0173Z" fill="#EDF0F1"/>
</svg>
